<?xml version="1.0" encoding="iso-8859-1"?>
<!-- Generator: Adobe Illustrator 18.0.0, SVG Export Plug-In . SVG Version: 6.00 Build 0)  -->
<!DOCTYPE svg PUBLIC "-//W3C//DTD SVG 1.1//EN" "http://www.w3.org/Graphics/SVG/1.1/DTD/svg11.dtd">
<svg version="1.1" id="Capa_1" xmlns="http://www.w3.org/2000/svg" xmlns:xlink="http://www.w3.org/1999/xlink" x="0px" y="0px"
	 viewBox="0 0 433.815 433.815" style="enable-background:new 0 0 433.815 433.815;" xml:space="preserve">
<g>
	<path d="M392.684,190.136c-0.097-2.69-2.306-4.82-4.997-4.82h-71.033v-85.57c0-55-44.746-99.746-99.746-99.746
		s-99.746,44.746-99.746,99.746v85.57H46.128c-2.691,0-4.9,2.131-4.997,4.82c-2.604,72.399,5,147.458,23.246,229.464
		c1.862,8.37,9.144,14.216,17.707,14.216h269.648c8.563,0,15.844-5.846,17.706-14.216
		C387.684,337.594,395.288,262.536,392.684,190.136z M382.848,195.315c0.05,1.691,0.089,3.386,0.128,5.08h-66.323v-5.08H382.848z
		 M127.162,222.49h10v40.998h-10V222.49z M286.654,185.315H147.162v-85.57C147.162,61.288,178.45,30,216.908,30
		c38.458,0,69.746,31.288,69.746,69.746V185.315z M147.162,195.315h139.492v5.08H147.162V195.315z M296.654,222.49h10v40.998h-10
		V222.49z M216.908,10c49.486,0,89.746,40.26,89.746,89.746V212.49h-10V99.746c0-43.972-35.773-79.746-79.746-79.746
		s-79.746,35.774-79.746,79.746V212.49h-10V99.746C127.162,50.26,167.422,10,216.908,10z M117.162,195.315v5.08H50.838
		c0.039-1.694,0.078-3.389,0.128-5.08H117.162z M359.677,417.428c-0.837,3.761-4.104,6.388-7.944,6.388H82.084
		c-3.841,0-7.108-2.627-7.945-6.388c-16.39-73.665-24.099-141.619-23.462-207.032h66.486v58.092c0,2.761,2.239,5,5,5h20
		c2.761,0,5-2.239,5-5v-58.092h139.492v58.092c0,2.761,2.238,5,5,5h20c2.762,0,5-2.239,5-5v-58.092h66.485
		C383.776,275.808,376.067,343.763,359.677,417.428z"/>
	<path d="M246.157,246.988H187.66c-2.761,0-5,2.239-5,5v40.498c0,2.761,2.239,5,5,5h58.497c2.762,0,5-2.239,5-5v-40.498
		C251.157,249.227,248.919,246.988,246.157,246.988z M241.157,287.486H192.66v-30.498h48.497V287.486z"/>
	<path d="M201.171,269.547c1.31,0,2.6-0.54,3.53-1.47c0.93-0.93,1.47-2.22,1.47-3.54c0-1.31-0.54-2.6-1.47-3.53
		c-0.93-0.93-2.22-1.46-3.53-1.46c-1.32,0-2.61,0.53-3.54,1.46c-0.93,0.93-1.46,2.22-1.46,3.53c0,1.32,0.53,2.61,1.46,3.54
		C198.561,269.007,199.851,269.547,201.171,269.547z"/>
	<path d="M232.651,269.547c1.31,0,2.6-0.54,3.529-1.47c0.94-0.93,1.471-2.22,1.471-3.54c0-1.31-0.53-2.6-1.471-3.53
		c-0.93-0.93-2.22-1.47-3.529-1.47c-1.32,0-2.61,0.54-3.54,1.47c-0.931,0.93-1.46,2.22-1.46,3.53c0,1.32,0.529,2.61,1.46,3.54
		C230.041,269.007,231.331,269.547,232.651,269.547z"/>
	<path d="M201.171,284.937c1.31,0,2.6-0.54,3.53-1.47c0.93-0.93,1.47-2.22,1.47-3.53c0-1.32-0.54-2.61-1.47-3.54
		c-0.93-0.93-2.22-1.46-3.53-1.46c-1.32,0-2.61,0.53-3.54,1.46c-0.93,0.93-1.46,2.22-1.46,3.54c0,1.32,0.53,2.6,1.46,3.53
		C198.561,284.397,199.851,284.937,201.171,284.937z"/>
	<path d="M232.651,284.937c1.319,0,2.6-0.54,3.529-1.47c0.94-0.93,1.471-2.22,1.471-3.53c0-1.32-0.53-2.61-1.471-3.54
		c-0.93-0.93-2.22-1.46-3.529-1.46c-1.32,0-2.61,0.53-3.54,1.46c-0.931,0.93-1.46,2.22-1.46,3.54c0,1.31,0.529,2.6,1.46,3.53
		C230.041,284.397,231.331,284.937,232.651,284.937z"/>
</g>
<g>
</g>
<g>
</g>
<g>
</g>
<g>
</g>
<g>
</g>
<g>
</g>
<g>
</g>
<g>
</g>
<g>
</g>
<g>
</g>
<g>
</g>
<g>
</g>
<g>
</g>
<g>
</g>
<g>
</g>
</svg>
