<?xml version="1.0" encoding="iso-8859-1"?>
<!-- Generator: Adobe Illustrator 19.0.0, SVG Export Plug-In . SVG Version: 6.00 Build 0)  -->
<svg version="1.1" id="Capa_1" xmlns="http://www.w3.org/2000/svg" xmlns:xlink="http://www.w3.org/1999/xlink" x="0px" y="0px"
	 viewBox="0 0 512 512" style="enable-background:new 0 0 512 512;" xml:space="preserve">
<g>
	<g>
		<path d="M388.866,300.271c-1.008-0.235-2.101-0.047-2.992,0.531c-0.219,0.141-22.168,13.888-52.92,13.888
			c-22.559,0.016-44.063-7.31-63.895-21.746c-25.504-18.575-64.59-57.884-102.388-95.893C106.503,136.531,68.845,99.78,53.379,99.78
			c-3.07,0-5.616,1.329-7.155,3.726C7.606,163.456-5.587,199.707,2.091,224.742c8.046,26.222,37.79,38.899,78.955,56.454
			c51.202,21.825,121.314,51.726,191.778,124.323c2.289,3.124,8.123,6.701,33.127,6.701c33.432,0,85.07-6.655,125.587-16.2
			C484.927,383.46,512,368.696,512,352.169C512,328.767,417.751,306.521,388.866,300.271z M429.702,388.241
			c-39.978,9.404-90.874,15.981-123.751,15.981c-23.371,0-26.581-3.313-27.034-3.844
			c-71.933-74.189-142.913-104.449-194.739-126.539c-39.172-16.712-67.48-28.781-74.439-51.448
			c-6.913-22.535,6.006-56.794,43.64-114.612c13.255,0,63.387,50.42,107.621,94.913c38.017,38.236,77.33,77.772,103.357,96.721
			c21.223,15.45,44.305,23.293,68.597,23.277c28.808,0,50.109-11.013,55.764-14.278c55.747,12.216,115.284,32.26,115.284,43.758
			C504.002,361.152,484.481,375.337,429.702,388.241z"/>
	</g>
</g>
<g>
	<g>
		<g>
			<path d="M90.459,259.118c-2.039-0.874-4.382,0.086-5.249,2.109c-0.868,2.031,0.078,4.379,2.108,5.253
				c52.116,22.215,123.494,52.648,196.153,127.103c0.781,0.797,1.82,1.203,2.859,1.203c1.008,0,2.015-0.375,2.797-1.141
				c1.578-1.531,1.609-4.062,0.062-5.655C215.421,312.394,143.199,281.602,90.459,259.118z"/>
			<path d="M491.839,350.341c-13.92-9.216-56.201-23.152-100.537-33.15c-2.187-0.515-4.303,0.86-4.78,3.015
				c-0.492,2.156,0.868,4.296,3.015,4.78c42.813,9.655,84.892,23.418,97.881,32.025c0.68,0.453,1.453,0.656,2.211,0.656
				c1.297,0,2.562-0.625,3.335-1.78C494.182,354.043,493.674,351.56,491.839,350.341z"/>
		</g>
	</g>
</g>
<g>
	<g>
		<path d="M94.215,300.787c-1.851-1.156-4.327-0.625-5.522,1.25c-14.028,22.183-8.834,102.95-8.607,106.387
			c0.14,2.109,1.897,3.733,3.983,3.733c0.094,0,0.18,0,0.272-0.016c2.203-0.141,3.874-2.046,3.726-4.249
			c-1.507-22.637-3.116-84.984,7.39-101.575C96.636,304.442,96.082,301.975,94.215,300.787z"/>
	</g>
</g>
<g>
	<g>
		<path d="M38.694,269.151c-1.68-1.437-4.202-1.25-5.64,0.422c-1.445,1.671-1.249,4.202,0.422,5.64
			C62.018,299.74,64.064,407.142,64.08,408.22c0.04,2.188,1.82,3.937,4,3.937c0.023,0,0.039,0,0.062-0.001
			c2.211-0.047,3.968-1.859,3.937-4.062C72.008,403.533,69.939,296.005,38.694,269.151z"/>
	</g>
</g>
<g>
	<g>
		<path d="M84.077,404.159H68.08c-2.211,0-4,1.781-4,3.999c0,2.203,1.789,3.999,4,3.999h15.997c2.21,0,3.999-1.796,3.999-3.999
			C88.076,405.94,86.287,404.159,84.077,404.159z"/>
	</g>
</g>
<g>
</g>
<g>
</g>
<g>
</g>
<g>
</g>
<g>
</g>
<g>
</g>
<g>
</g>
<g>
</g>
<g>
</g>
<g>
</g>
<g>
</g>
<g>
</g>
<g>
</g>
<g>
</g>
<g>
</g>
</svg>
