<?xml version="1.0" encoding="iso-8859-1"?>
<!-- Generator: Adobe Illustrator 19.0.0, SVG Export Plug-In . SVG Version: 6.00 Build 0)  -->
<svg version="1.1" id="Capa_1" xmlns="http://www.w3.org/2000/svg" xmlns:xlink="http://www.w3.org/1999/xlink" x="0px" y="0px"
	 viewBox="0 0 511.908 511.908" style="enable-background:new 0 0 511.908 511.908;" xml:space="preserve">
<g>
	<g>
		<path d="M391.929,487.912H119.978c-2.21,0-3.999,1.789-3.999,4c0,2.21,1.789,3.999,3.999,3.999H391.93
			c2.211,0,3.999-1.789,3.998-3.999C395.928,489.701,394.14,487.912,391.929,487.912z"/>
	</g>
</g>
<g>
	<g>
		<path d="M255.954,127.977c-2.21,0-3.999,1.788-3.999,3.999v351.937c0,2.211,1.789,3.999,3.999,3.999
			c2.211,0,3.999-1.788,3.999-3.999V131.976C259.953,129.765,258.165,127.977,255.954,127.977z"/>
	</g>
</g>
<g>
	<g>
		<path d="M119.978,175.969c-2.21,0-3.999,1.788-3.999,3.999v311.944c0,2.21,1.789,3.999,3.999,3.999c2.211,0,4-1.789,4-3.999
			V179.968C123.978,177.757,122.189,175.969,119.978,175.969z"/>
	</g>
</g>
<g>
	<g>
		<path d="M123.97,70.398c-0.656-2.105-2.851-3.273-5.007-2.636c-35.275,10.932-58.974,43.168-58.974,80.212
			c0,2.211,1.789,3.999,4,3.999c2.21,0,3.999-1.789,3.999-3.999c0-33.517,21.442-62.683,53.35-72.573
			C123.447,74.75,124.626,72.507,123.97,70.398z"/>
	</g>
</g>
<g>
	<g>
		<path d="M63.989,143.975c-2.211,0-4,1.788-4,3.999v279.95c0,2.21,1.789,3.999,4,3.999c2.21,0,3.999-1.789,3.999-3.999v-279.95
			C67.988,145.763,66.199,143.975,63.989,143.975z"/>
	</g>
</g>
<g>
	<g>
		<path d="M111.98,423.924H63.989c-2.211,0-4,1.789-4,4c0,2.21,1.789,3.999,4,3.999h47.991c2.21,0,3.999-1.789,3.999-3.999
			C115.979,425.713,114.19,423.924,111.98,423.924z"/>
	</g>
</g>
<g>
	<g>
		<path d="M71.987,431.923c-2.21,0-3.999,1.788-3.999,3.999v15.997c0,2.21,1.789,3.999,3.999,3.999c2.211,0,4-1.789,4-3.999v-15.997
			C75.987,433.711,74.198,431.923,71.987,431.923z"/>
	</g>
</g>
<g>
	<g>
		<path d="M111.98,447.92H71.987c-2.21,0-3.999,1.789-3.999,3.999c0,2.21,1.789,3.999,3.999,3.999h39.993
			c2.21,0,3.999-1.789,3.999-3.999C115.979,449.709,114.19,447.92,111.98,447.92z"/>
	</g>
</g>
<g>
	<g>
		<path d="M87.984,439.921c-2.21,0-3.999,1.789-3.999,3.999v7.999c0,2.21,1.789,3.999,3.999,3.999c2.211,0,4-1.789,4-3.999v-7.999
			C91.984,441.71,90.195,439.921,87.984,439.921z"/>
	</g>
</g>
<g>
	<g>
		<path d="M103.981,439.921c-2.21,0-3.999,1.789-3.999,3.999v7.999c0,2.21,1.789,3.999,3.999,3.999c2.211,0,4-1.789,4-3.999v-7.999
			C107.981,441.71,106.192,439.921,103.981,439.921z"/>
	</g>
</g>
<g>
	<g>
		<path d="M267.531,162.182l-7.999-15.997c-0.991-1.979-3.39-2.768-5.366-1.788c-1.977,0.987-2.773,3.389-1.789,5.366l7.998,15.997
			c0.703,1.401,2.117,2.21,3.578,2.21c0.602,0,1.211-0.137,1.789-0.422C267.719,166.561,268.515,164.159,267.531,162.182z"/>
	</g>
</g>
<g>
	<g>
		<path d="M127.977,495.911c-2.211,0-4,1.788-4,3.999v7.999c0,2.21,1.789,3.999,4,3.999s3.999-1.789,3.999-3.999v-7.999
			C131.976,497.699,130.187,495.911,127.977,495.911z"/>
	</g>
</g>
<g>
	<g>
		<path d="M383.931,503.91H127.977c-2.211,0-4,1.788-4,3.999c0,2.21,1.789,3.999,4,3.999h255.955c2.21,0,3.999-1.789,3.998-3.999
			C387.93,505.698,386.141,503.91,383.931,503.91z"/>
	</g>
</g>
<g>
	<g>
		<path d="M383.932,495.911c-2.211,0-4,1.788-4,3.999v7.999c0,2.21,1.789,3.999,4,3.999c2.21,0,3.999-1.789,3.999-3.999v-7.999
			C387.931,497.699,386.142,495.911,383.932,495.911z"/>
	</g>
</g>
<g>
	<g>
		<path d="M359.935,495.911c-2.211,0-3.999,1.788-3.999,3.999v7.999c0,2.21,1.788,3.999,3.999,3.999s3.999-1.789,3.999-3.999v-7.999
			C363.934,497.699,362.146,495.911,359.935,495.911z"/>
	</g>
</g>
<g>
	<g>
		<path d="M343.938,495.911c-2.211,0-3.999,1.788-3.999,3.999v7.999c0,2.21,1.788,3.999,3.999,3.999c2.21,0,3.999-1.789,3.999-3.999
			v-7.999C347.937,497.699,346.148,495.911,343.938,495.911z"/>
	</g>
</g>
<g>
	<g>
		<path d="M327.941,495.911c-2.211,0-4,1.788-4,3.999v7.999c0,2.21,1.789,3.999,4,3.999s3.999-1.789,3.999-3.999v-7.999
			C331.94,497.699,330.152,495.911,327.941,495.911z"/>
	</g>
</g>
<g>
	<g>
		<path d="M311.944,495.911c-2.211,0-3.999,1.788-3.999,3.999v7.999c0,2.21,1.788,3.999,3.999,3.999c2.21,0,3.999-1.789,3.999-3.999
			v-7.999C315.943,497.699,314.154,495.911,311.944,495.911z"/>
	</g>
</g>
<g>
	<g>
		<path d="M295.947,495.911c-2.211,0-4,1.788-4,3.999v7.999c0,2.21,1.789,3.999,4,3.999s3.999-1.789,3.999-3.999v-7.999
			C299.946,497.699,298.158,495.911,295.947,495.911z"/>
	</g>
</g>
<g>
	<g>
		<path d="M279.95,495.911c-2.211,0-3.999,1.788-3.999,3.999v7.999c0,2.21,1.788,3.999,3.999,3.999c2.21,0,3.999-1.789,3.999-3.999
			v-7.999C283.949,497.699,282.16,495.911,279.95,495.911z"/>
	</g>
</g>
<g>
	<g>
		<path d="M263.953,495.911c-2.211,0-4,1.788-4,3.999v7.999c0,2.21,1.789,3.999,4,3.999c2.21,0,3.999-1.789,3.999-3.999v-7.999
			C267.952,497.699,266.163,495.911,263.953,495.911z"/>
	</g>
</g>
<g>
	<g>
		<path d="M247.956,495.911c-2.211,0-4,1.788-4,3.999v7.999c0,2.21,1.789,3.999,4,3.999c2.21,0,3.999-1.789,3.999-3.999v-7.999
			C251.955,497.699,250.166,495.911,247.956,495.911z"/>
	</g>
</g>
<g>
	<g>
		<path d="M231.958,495.911c-2.211,0-4,1.788-4,3.999v7.999c0,2.21,1.79,3.999,4,3.999c2.211,0,4-1.789,4-3.999v-7.999
			C235.958,497.699,234.169,495.911,231.958,495.911z"/>
	</g>
</g>
<g>
	<g>
		<path d="M215.961,495.911c-2.211,0-4,1.788-4,3.999v7.999c0,2.21,1.79,3.999,4,3.999c2.211,0,4-1.789,4-3.999v-7.999
			C219.961,497.699,218.172,495.911,215.961,495.911z"/>
	</g>
</g>
<g>
	<g>
		<path d="M199.964,495.911c-2.211,0-4,1.788-4,3.999v7.999c0,2.21,1.79,3.999,4,3.999c2.211,0,4-1.789,4-3.999v-7.999
			C203.964,497.699,202.175,495.911,199.964,495.911z"/>
	</g>
</g>
<g>
	<g>
		<path d="M183.967,495.911c-2.211,0-4,1.788-4,3.999v7.999c0,2.21,1.79,3.999,4,3.999c2.211,0,4-1.789,4-3.999v-7.999
			C187.967,497.699,186.178,495.911,183.967,495.911z"/>
	</g>
</g>
<g>
	<g>
		<path d="M167.97,495.911c-2.211,0-4,1.788-4,3.999v7.999c0,2.21,1.79,3.999,4,3.999c2.211,0,4-1.789,4-3.999v-7.999
			C171.97,497.699,170.181,495.911,167.97,495.911z"/>
	</g>
</g>
<g>
	<g>
		<path d="M151.973,495.911c-2.211,0-4,1.788-4,3.999v7.999c0,2.21,1.79,3.999,4,3.999c2.21,0,4-1.789,4-3.999v-7.999
			C155.973,497.699,154.184,495.911,151.973,495.911z"/>
	</g>
</g>
<g>
	<g>
		<path d="M247.925,119.978c-0.851,0-86.102-0.91-124.446-69.929c-1.078-1.942-3.523-2.62-5.444-1.555
			c-1.93,1.075-2.625,3.508-1.555,5.437c40.672,73.198,130.539,74.046,131.445,74.046c2.21,0,3.999-1.789,3.999-3.996
			C251.924,121.771,250.135,119.982,247.925,119.978z"/>
	</g>
</g>
<g>
	<g>
		<path d="M251.72,122.716c-0.258-0.774-6.514-19.119-25.948-38.56c-17.801-17.809-50.553-39.926-105.489-44.152
			c-1.968-0.172-4.124,1.469-4.288,3.679c-0.172,2.203,1.477,4.128,3.679,4.296c99.889,7.683,124.228,76.573,124.462,77.268
			c0.562,1.672,2.117,2.727,3.789,2.727c0.421,0,0.851-0.067,1.264-0.208C251.282,127.067,252.415,124.805,251.72,122.716z"/>
	</g>
</g>
<g>
	<g>
		<path d="M391.93,175.969c-2.211,0-3.999,1.788-3.999,3.999v311.944c0,2.21,1.788,3.999,3.999,3.999s3.999-1.789,3.999-3.999
			V179.968C395.929,177.757,394.141,175.969,391.93,175.969z"/>
	</g>
</g>
<g>
	<g>
		<path d="M392.945,67.762c-2.156-0.652-4.359,0.532-5.007,2.636c-0.656,2.109,0.524,4.352,2.632,5.003
			c31.909,9.889,53.35,39.055,53.35,72.573c0,2.211,1.789,3.999,4,3.999c2.21,0,3.999-1.789,3.999-3.999
			C451.919,110.93,428.219,78.694,392.945,67.762z"/>
	</g>
</g>
<g>
	<g>
		<path d="M447.92,143.975c-2.211,0-4,1.788-4,3.999v279.95c0,2.21,1.789,3.999,4,3.999c2.21,0,3.999-1.789,3.999-3.999v-279.95
			C451.919,145.763,450.13,143.975,447.92,143.975z"/>
	</g>
</g>
<g>
	<g>
		<path d="M447.92,423.924h-47.992c-2.21,0-3.999,1.789-3.999,4c0,2.21,1.789,3.999,3.999,3.999h47.992
			c2.21,0,3.999-1.789,3.999-3.999C451.919,425.713,450.13,423.924,447.92,423.924z"/>
	</g>
</g>
<g>
	<g>
		<path d="M439.921,431.923c-2.21,0-3.999,1.788-3.999,3.999v15.997c0,2.21,1.789,3.999,3.999,3.999
			c2.211,0,3.999-1.789,3.999-3.999v-15.997C443.92,433.711,442.132,431.923,439.921,431.923z"/>
	</g>
</g>
<g>
	<g>
		<path d="M439.921,447.92h-39.993c-2.21,0-3.999,1.789-3.999,3.999c0,2.21,1.789,3.999,3.999,3.999h39.993
			c2.211,0,3.999-1.789,3.999-3.999C443.92,449.709,442.132,447.92,439.921,447.92z"/>
	</g>
</g>
<g>
	<g>
		<path d="M423.924,439.921c-2.211,0-3.999,1.789-3.999,3.999v7.999c0,2.21,1.788,3.999,3.999,3.999s4-1.789,4-3.999v-7.999
			C427.924,441.71,426.135,439.921,423.924,439.921z"/>
	</g>
</g>
<g>
	<g>
		<path d="M407.927,439.921c-2.21,0-3.999,1.789-3.999,3.999v7.999c0,2.21,1.789,3.999,3.999,3.999c2.211,0,3.999-1.789,3.999-3.999
			v-7.999C411.926,441.71,410.138,439.921,407.927,439.921z"/>
	</g>
</g>
<g>
	<g>
		<path d="M393.875,48.494c-1.922-1.073-4.367-0.386-5.444,1.555c-38.345,69.019-123.626,69.929-124.478,69.929
			c-2.211,0.004-4,1.793-4,4.003c0,2.207,1.789,3.996,4,3.996c0.906,0,90.804-0.847,131.477-74.046
			C396.499,52.002,395.804,49.568,393.875,48.494z"/>
	</g>
</g>
<g>
	<g>
		<path d="M391.625,40.004c-54.936,4.225-87.695,26.342-105.504,44.152c-19.443,19.442-25.707,37.786-25.965,38.556
			c-0.696,2.097,0.437,4.363,2.531,5.058c0.422,0.141,0.844,0.207,1.266,0.207c1.672,0,3.233-1.058,3.796-2.734
			c0.226-0.696,24.315-69.558,124.485-77.264c2.203-0.168,3.851-2.093,3.679-4.296C395.749,41.473,393.617,39.785,391.625,40.004z"
			/>
	</g>
</g>
<g>
	<g>
		<path d="M255.954,0c-91.898,0-139.975,22.133-139.975,43.992c0,2.211,1.789,3.999,3.999,3.999c2.211,0,4-1.788,4-3.999
			c0-12.552,38.712-35.993,131.976-35.993c93.265,0,131.977,23.441,131.977,35.993c0,2.211,1.788,3.999,3.999,3.999
			s3.999-1.788,3.999-3.999C395.929,22.133,347.852,0,255.954,0z"/>
	</g>
</g>
<g>
	<g>
		<path d="M369.762,35.564c-12.959-7.307-44.961-19.567-113.808-19.567c-68.706,0-100.708,12.225-113.674,19.509
			c-1.921,1.082-2.608,3.522-1.523,5.448c1.085,1.924,3.53,2.604,5.444,1.526c9.888-5.556,40.375-18.484,109.753-18.484
			c69.519,0,99.998,12.962,109.871,18.535c0.625,0.352,1.297,0.516,1.968,0.516c1.39,0,2.75-0.73,3.485-2.035
			C372.364,39.09,371.684,36.65,369.762,35.564z"/>
	</g>
</g>
<g>
	<g>
		<path d="M287.948,127.978c-2.21,0-3.999,1.788-3.999,3.999v47.991c0,2.211,1.789,3.999,3.999,3.999
			c2.211,0,3.999-1.788,3.999-3.999v-47.991C291.947,129.766,290.159,127.978,287.948,127.978z"/>
	</g>
</g>
<g>
	<g>
		<path d="M223.96,127.978c-2.21,0-3.999,1.788-3.999,3.999v47.991c0,2.211,1.789,3.999,3.999,3.999
			c2.211,0,3.999-1.788,3.999-3.999v-47.991C227.959,129.766,226.171,127.978,223.96,127.978z"/>
	</g>
</g>
<g>
	<g>
		<path d="M390.992,386.142l-31.994-63.988c-0.992-1.977-3.382-2.772-5.366-1.789c-1.976,0.984-2.772,3.39-1.788,5.366
			l31.994,63.988c0.703,1.399,2.116,2.211,3.577,2.211c0.601,0,1.211-0.141,1.788-0.422
			C391.18,390.524,391.976,388.119,390.992,386.142z"/>
	</g>
</g>
<g>
	<g>
		<path d="M165.243,320.365c-1.969-0.976-4.374-0.188-5.366,1.789l-31.994,63.988c-0.984,1.976-0.187,4.382,1.789,5.366
			c0.579,0.281,1.187,0.422,1.789,0.422c1.461,0,2.875-0.813,3.577-2.211l31.994-63.988
			C168.016,323.756,167.219,321.349,165.243,320.365z"/>
	</g>
</g>
<g>
</g>
<g>
</g>
<g>
</g>
<g>
</g>
<g>
</g>
<g>
</g>
<g>
</g>
<g>
</g>
<g>
</g>
<g>
</g>
<g>
</g>
<g>
</g>
<g>
</g>
<g>
</g>
<g>
</g>
</svg>
