<?xml version="1.0" encoding="iso-8859-1"?>
<!-- Generator: Adobe Illustrator 19.0.0, SVG Export Plug-In . SVG Version: 6.00 Build 0)  -->
<svg version="1.1" id="Capa_1" xmlns="http://www.w3.org/2000/svg" xmlns:xlink="http://www.w3.org/1999/xlink" x="0px" y="0px"
	 viewBox="0 0 511.908 511.908" style="enable-background:new 0 0 511.908 511.908;" xml:space="preserve">
<g>
	<g>
		<path d="M160.209,119.978h-0.078c-2.21,0-3.96,1.789-3.96,3.999c0,2.211,1.832,4,4.039,4c2.21,0,3.999-1.789,3.998-4
			C164.208,121.767,162.419,119.978,160.209,119.978z"/>
	</g>
</g>
<g>
	<g>
		<path d="M176.207,135.976h-0.078c-2.211,0-3.96,1.789-3.96,3.999c0,2.211,1.831,4,4.038,4c2.21,0,3.999-1.79,3.999-4
			S178.417,135.976,176.207,135.976z"/>
	</g>
</g>
<g>
	<g>
		<path d="M160.209,87.984h-0.078c-2.21,0-3.96,1.789-3.96,3.999c0,2.211,1.832,4,4.039,4c2.21,0,3.999-1.789,3.998-4
			C164.208,89.773,162.419,87.984,160.209,87.984z"/>
	</g>
</g>
<g>
	<g>
		<path d="M176.207,103.981h-0.078c-2.211,0-3.96,1.789-3.96,3.999c0,2.211,1.831,4,4.038,4c2.21,0,3.999-1.789,3.999-4
			C180.206,105.77,178.417,103.981,176.207,103.981z"/>
	</g>
</g>
<g>
	<g>
		<path d="M192.204,119.978h-0.078c-2.211,0-3.96,1.789-3.96,3.999c0,2.211,1.831,4,4.038,4c2.21,0,3.999-1.789,3.999-4
			C196.203,121.767,194.414,119.978,192.204,119.978z"/>
	</g>
</g>
<g>
	<g>
		<path d="M208.201,135.976h-0.078c-2.21,0-3.96,1.789-3.96,3.999c0,2.211,1.831,4,4.038,4c2.211,0,3.999-1.79,3.999-4
			S210.411,135.976,208.201,135.976z"/>
	</g>
</g>
<g>
	<g>
		<path d="M160.209,55.99h-0.078c-2.21,0-3.96,1.789-3.96,3.999c0,2.211,1.832,4,4.039,4c2.21,0,3.999-1.789,3.998-4
			C164.208,57.779,162.419,55.99,160.209,55.99z"/>
	</g>
</g>
<g>
	<g>
		<path d="M176.207,71.987h-0.078c-2.211,0-3.96,1.789-3.96,3.999c0,2.211,1.831,4,4.038,4c2.21,0,3.999-1.789,3.999-4
			C180.206,73.776,178.417,71.987,176.207,71.987z"/>
	</g>
</g>
<g>
	<g>
		<path d="M192.204,87.984h-0.078c-2.211,0-3.96,1.789-3.96,3.999c0,2.211,1.831,4,4.038,4c2.21,0,3.999-1.789,3.999-4
			C196.203,89.773,194.414,87.984,192.204,87.984z"/>
	</g>
</g>
<g>
	<g>
		<path d="M208.201,103.981h-0.078c-2.21,0-3.96,1.789-3.96,3.999c0,2.211,1.831,4,4.038,4c2.211,0,3.999-1.789,3.999-4
			C212.2,105.77,210.411,103.981,208.201,103.981z"/>
	</g>
</g>
<g>
	<g>
		<path d="M224.198,119.978h-0.078c-2.21,0-3.96,1.789-3.96,3.999c0,2.211,1.831,4,4.038,4c2.211,0,3.999-1.789,3.999-4
			C228.197,121.767,226.409,119.978,224.198,119.978z"/>
	</g>
</g>
<g>
	<g>
		<path d="M240.195,135.976h-0.078c-2.21,0-3.96,1.789-3.96,3.999c0,2.211,1.831,4,4.038,4c2.211,0,3.999-1.79,3.999-4
			S242.406,135.976,240.195,135.976z"/>
	</g>
</g>
<g>
	<g>
		<path d="M176.207,39.993h-0.078c-2.211,0-3.96,1.789-3.96,3.999c0,2.211,1.831,3.999,4.038,3.999c2.21,0,3.999-1.788,3.999-3.999
			C180.206,41.782,178.417,39.993,176.207,39.993z"/>
	</g>
</g>
<g>
	<g>
		<path d="M192.204,55.99h-0.078c-2.211,0-3.96,1.789-3.96,3.999c0,2.211,1.831,4,4.038,4c2.21,0,3.999-1.789,3.999-4
			C196.203,57.779,194.414,55.99,192.204,55.99z"/>
	</g>
</g>
<g>
	<g>
		<path d="M208.201,71.987h-0.078c-2.21,0-3.96,1.789-3.96,3.999c0,2.211,1.831,4,4.038,4c2.211,0,3.999-1.789,3.999-4
			C212.2,73.776,210.411,71.987,208.201,71.987z"/>
	</g>
</g>
<g>
	<g>
		<path d="M256.192,119.978h-0.078c-2.21,0-3.96,1.789-3.96,3.999c0,2.211,1.831,4,4.038,4c2.211,0,3.999-1.789,3.999-4
			C260.191,121.767,258.403,119.978,256.192,119.978z"/>
	</g>
</g>
<g>
	<g>
		<path d="M272.185,135.976h-0.078c-2.203,0-3.952,1.789-3.952,3.999c0,2.211,1.827,4,4.03,4c2.219,0,4-1.79,4-4
			S274.404,135.976,272.185,135.976z"/>
	</g>
</g>
<g>
	<g>
		<path d="M192.204,23.996h-0.078c-2.211,0-3.96,1.789-3.96,3.999c0,2.211,1.831,3.999,4.038,3.999c2.21,0,3.999-1.788,3.999-3.999
			C196.203,25.785,194.414,23.996,192.204,23.996z"/>
	</g>
</g>
<g>
	<g>
		<path d="M208.201,39.993h-0.078c-2.21,0-3.96,1.789-3.96,3.999c0,2.211,1.831,3.999,4.038,3.999c2.211,0,3.999-1.788,3.999-3.999
			C212.2,41.782,210.411,39.993,208.201,39.993z"/>
	</g>
</g>
<g>
	<g>
		<path d="M288.183,119.978h-0.078c-2.202,0-3.952,1.789-3.952,3.999c0,2.211,1.828,4,4.03,4c2.218,0,3.999-1.789,3.999-4
			C292.182,121.767,290.402,119.978,288.183,119.978z"/>
	</g>
</g>
<g>
	<g>
		<path d="M304.18,135.976h-0.078c-2.202,0-3.952,1.789-3.952,3.999c0,2.211,1.828,4,4.03,4c2.218,0,4-1.79,4-4
			S306.399,135.976,304.18,135.976z"/>
	</g>
</g>
<g>
	<g>
		<path d="M208.201,7.999h-0.078c-2.21,0-3.96,1.789-3.96,3.999c0,2.211,1.831,3.999,4.038,3.999c2.211,0,3.999-1.788,3.999-3.999
			C212.2,9.788,210.411,7.999,208.201,7.999z"/>
	</g>
</g>
<g>
	<g>
		<path d="M224.198,23.996h-0.078c-2.21,0-3.96,1.789-3.96,3.999c0,2.211,1.831,3.999,4.038,3.999c2.211,0,3.999-1.788,3.999-3.999
			C228.197,25.785,226.409,23.996,224.198,23.996z"/>
	</g>
</g>
<g>
	<g>
		<path d="M240.195,39.993h-0.078c-2.21,0-3.96,1.789-3.96,3.999c0,2.211,1.831,3.999,4.038,3.999c2.211,0,3.999-1.788,3.999-3.999
			C244.194,41.782,242.406,39.993,240.195,39.993z"/>
	</g>
</g>
<g>
	<g>
		<path d="M304.18,103.981h-0.078c-2.202,0-3.952,1.789-3.952,3.999c0,2.211,1.828,4,4.03,4c2.218,0,4-1.789,4-4
			C308.18,105.77,306.399,103.981,304.18,103.981z"/>
	</g>
</g>
<g>
	<g>
		<path d="M320.177,119.978h-0.078c-2.202,0-3.952,1.789-3.952,3.999c0,2.211,1.828,4,4.03,4c2.218,0,3.999-1.789,3.999-4
			C324.176,121.767,322.396,119.978,320.177,119.978z"/>
	</g>
</g>
<g>
	<g>
		<path d="M336.174,135.976h-0.078c-2.202,0-3.952,1.789-3.952,3.999c0,2.211,1.828,4,4.03,4c2.218,0,4-1.79,4-4
			S338.393,135.976,336.174,135.976z"/>
	</g>
</g>
<g>
	<g>
		<path d="M240.195,7.999h-0.078c-2.21,0-3.96,1.789-3.96,3.999c0,2.211,1.831,3.999,4.038,3.999c2.211,0,3.999-1.788,3.999-3.999
			C244.194,9.788,242.406,7.999,240.195,7.999z"/>
	</g>
</g>
<g>
	<g>
		<path d="M256.192,23.996h-0.078c-2.21,0-3.96,1.789-3.96,3.999c0,2.211,1.831,3.999,4.038,3.999c2.211,0,3.999-1.788,3.999-3.999
			C260.191,25.785,258.403,23.996,256.192,23.996z"/>
	</g>
</g>
<g>
	<g>
		<path d="M272.185,39.993h-0.078c-2.203,0-3.952,1.789-3.952,3.999c0,2.211,1.827,3.999,4.03,3.999c2.219,0,4-1.788,4-3.999
			C276.185,41.782,274.404,39.993,272.185,39.993z"/>
	</g>
</g>
<g>
	<g>
		<path d="M304.18,71.987h-0.078c-2.202,0-3.952,1.789-3.952,3.999c0,2.211,1.828,4,4.03,4c2.218,0,4-1.789,4-4
			C308.18,73.776,306.399,71.987,304.18,71.987z"/>
	</g>
</g>
<g>
	<g>
		<path d="M320.177,87.984h-0.078c-2.202,0-3.952,1.789-3.952,3.999c0,2.211,1.828,4,4.03,4c2.218,0,3.999-1.789,3.999-4
			C324.176,89.773,322.396,87.984,320.177,87.984z"/>
	</g>
</g>
<g>
	<g>
		<path d="M336.174,103.981h-0.078c-2.202,0-3.952,1.789-3.952,3.999c0,2.211,1.828,4,4.03,4c2.218,0,4-1.789,4-4
			C340.174,105.77,338.393,103.981,336.174,103.981z"/>
	</g>
</g>
<g>
	<g>
		<path d="M352.172,119.978h-0.078c-2.203,0-3.953,1.789-3.953,3.999c0,2.211,1.828,4,4.031,4c2.218,0,3.999-1.789,3.999-4
			C356.171,121.767,354.39,119.978,352.172,119.978z"/>
	</g>
</g>
<g>
	<g>
		<path d="M272.185,7.999h-0.078c-2.203,0-3.952,1.789-3.952,3.999c0,2.211,1.827,3.999,4.03,3.999c2.219,0,4-1.788,4-3.999
			C276.185,9.788,274.404,7.999,272.185,7.999z"/>
	</g>
</g>
<g>
	<g>
		<path d="M288.183,23.996h-0.078c-2.202,0-3.952,1.789-3.952,3.999c0,2.211,1.828,3.999,4.03,3.999
			c2.218,0,3.999-1.788,3.999-3.999C292.182,25.785,290.402,23.996,288.183,23.996z"/>
	</g>
</g>
<g>
	<g>
		<path d="M304.18,39.993h-0.078c-2.202,0-3.952,1.789-3.952,3.999c0,2.211,1.828,3.999,4.03,3.999c2.218,0,4-1.788,4-3.999
			C308.18,41.782,306.399,39.993,304.18,39.993z"/>
	</g>
</g>
<g>
	<g>
		<path d="M320.177,55.99h-0.078c-2.202,0-3.952,1.789-3.952,3.999c0,2.211,1.828,4,4.03,4c2.218,0,3.999-1.789,3.999-4
			C324.176,57.779,322.396,55.99,320.177,55.99z"/>
	</g>
</g>
<g>
	<g>
		<path d="M336.174,71.987h-0.078c-2.202,0-3.952,1.789-3.952,3.999c0,2.211,1.828,4,4.03,4c2.218,0,4-1.789,4-4
			C340.174,73.776,338.393,71.987,336.174,71.987z"/>
	</g>
</g>
<g>
	<g>
		<path d="M352.172,87.984h-0.078c-2.203,0-3.953,1.789-3.953,3.999c0,2.211,1.828,4,4.031,4c2.218,0,3.999-1.789,3.999-4
			C356.171,89.773,354.39,87.984,352.172,87.984z"/>
	</g>
</g>
<g>
	<g>
		<path d="M304.18,7.999h-0.078c-2.202,0-3.952,1.789-3.952,3.999c0,2.211,1.828,3.999,4.03,3.999c2.218,0,4-1.788,4-3.999
			C308.18,9.788,306.399,7.999,304.18,7.999z"/>
	</g>
</g>
<g>
	<g>
		<path d="M320.177,23.996h-0.078c-2.202,0-3.952,1.789-3.952,3.999c0,2.211,1.828,3.999,4.03,3.999
			c2.218,0,3.999-1.788,3.999-3.999C324.176,25.785,322.396,23.996,320.177,23.996z"/>
	</g>
</g>
<g>
	<g>
		<path d="M336.174,39.993h-0.078c-2.202,0-3.952,1.789-3.952,3.999c0,2.211,1.828,3.999,4.03,3.999c2.218,0,4-1.788,4-3.999
			C340.174,41.782,338.393,39.993,336.174,39.993z"/>
	</g>
</g>
<g>
	<g>
		<path d="M352.172,55.99h-0.078c-2.203,0-3.953,1.789-3.953,3.999c0,2.211,1.828,4,4.031,4c2.218,0,3.999-1.789,3.999-4
			C356.171,57.779,354.39,55.99,352.172,55.99z"/>
	</g>
</g>
<g>
	<g>
		<path d="M192.204,151.973h-0.078c-2.211,0-3.96,1.789-3.96,4c0,2.21,1.831,3.999,4.038,3.999c2.21,0,3.999-1.789,3.999-3.999
			C196.203,153.762,194.414,151.973,192.204,151.973z"/>
	</g>
</g>
<g>
	<g>
		<path d="M224.198,151.973h-0.078c-2.21,0-3.96,1.789-3.96,4c0,2.21,1.831,3.999,4.038,3.999c2.211,0,3.999-1.789,3.999-3.999
			C228.197,153.762,226.409,151.973,224.198,151.973z"/>
	</g>
</g>
<g>
	<g>
		<path d="M256.192,151.973h-0.078c-2.21,0-3.96,1.789-3.96,4c0,2.21,1.831,3.999,4.038,3.999c2.211,0,3.999-1.789,3.999-3.999
			C260.191,153.762,258.403,151.973,256.192,151.973z"/>
	</g>
</g>
<g>
	<g>
		<path d="M288.183,151.973h-0.078c-2.202,0-3.952,1.789-3.952,4c0,2.21,1.828,3.999,4.03,3.999c2.218,0,3.999-1.789,3.999-3.999
			C292.182,153.762,290.402,151.973,288.183,151.973z"/>
	</g>
</g>
<g>
	<g>
		<path d="M320.177,151.973h-0.078c-2.202,0-3.952,1.789-3.952,4c0,2.21,1.828,3.999,4.03,3.999c2.218,0,3.999-1.789,3.999-3.999
			C324.176,153.762,322.396,151.973,320.177,151.973z"/>
	</g>
</g>
<g>
	<g>
		<path d="M208.201,167.97h-0.078c-2.21,0-3.96,1.789-3.96,4c0,2.21,1.831,3.999,4.038,3.999c2.211,0,3.999-1.789,3.999-3.999
			C212.2,169.759,210.411,167.97,208.201,167.97z"/>
	</g>
</g>
<g>
	<g>
		<path d="M240.195,167.97h-0.078c-2.21,0-3.96,1.789-3.96,4c0,2.21,1.831,3.999,4.038,3.999c2.211,0,3.999-1.789,3.999-3.999
			C244.194,169.759,242.406,167.97,240.195,167.97z"/>
	</g>
</g>
<g>
	<g>
		<path d="M272.185,167.97h-0.078c-2.203,0-3.952,1.789-3.952,4c0,2.21,1.827,3.999,4.03,3.999c2.219,0,4-1.789,4-3.999
			C276.185,169.759,274.404,167.97,272.185,167.97z"/>
	</g>
</g>
<g>
	<g>
		<path d="M304.18,167.97h-0.078c-2.202,0-3.952,1.789-3.952,4c0,2.21,1.828,3.999,4.03,3.999c2.218,0,4-1.789,4-3.999
			C308.18,169.759,306.399,167.97,304.18,167.97z"/>
	</g>
</g>
<g>
	<g>
		<path d="M224.198,183.967h-0.078c-2.21,0-3.96,1.789-3.96,4c0,2.21,1.831,3.999,4.038,3.999c2.211,0,3.999-1.789,3.999-3.999
			C228.197,185.756,226.409,183.967,224.198,183.967z"/>
	</g>
</g>
<g>
	<g>
		<path d="M256.192,183.967h-0.078c-2.21,0-3.96,1.789-3.96,4c0,2.21,1.831,3.999,4.038,3.999c2.211,0,3.999-1.789,3.999-3.999
			C260.191,185.756,258.403,183.967,256.192,183.967z"/>
	</g>
</g>
<g>
	<g>
		<path d="M288.183,183.967h-0.078c-2.202,0-3.952,1.789-3.952,4c0,2.21,1.828,3.999,4.03,3.999c2.218,0,3.999-1.789,3.999-3.999
			C292.182,185.756,290.402,183.967,288.183,183.967z"/>
	</g>
</g>
<g>
	<g>
		<path d="M295.947,0h-79.986c-2.211,0-4,1.789-4,4c0,2.21,1.79,3.999,4,3.999h79.986c2.211,0,3.999-1.789,3.999-3.999
			C299.946,1.789,298.158,0,295.947,0z"/>
	</g>
</g>
<g>
	<g>
		<path d="M255.955,191.966c-49.936,0-105.644-48.277-105.742-117.549c-0.055-41.478,24.526-66.305,65.761-66.418
			c2.207-0.008,3.996-1.801,3.988-4.011c-0.008-2.203-1.797-3.988-4-3.988c-0.004,0-0.008,0-0.012,0
			c-54.44,0.149-73.784,38.544-73.737,74.425c0.082,59.38,46.816,125.539,113.741,125.539c2.211,0,3.999-1.788,4-3.999
			C259.954,193.755,258.166,191.966,255.955,191.966z"/>
	</g>
</g>
<g>
	<g>
		<path d="M295.963,0c-0.008,0-0.016,0-0.016,0c-2.203,0-3.992,1.785-4,3.988c-0.008,2.21,1.781,4.003,3.984,4.011
			c41.243,0.113,65.825,24.94,65.77,66.414c-0.094,69.277-55.803,117.553-105.747,117.553c-2.21,0-3.999,1.789-3.999,3.999
			c0,2.211,1.789,3.999,3.999,3.999c66.926,0,113.667-66.159,113.745-125.539C369.746,38.544,350.406,0.148,295.963,0z"/>
	</g>
</g>
<g>
	<g>
		<path d="M279.95,47.991h-47.992c-2.211,0-4,1.789-4,4c0,2.21,1.79,3.999,4,3.999h47.992c2.21,0,3.999-1.789,3.999-3.999
			C283.949,49.78,282.16,47.991,279.95,47.991z"/>
	</g>
</g>
<g>
	<g>
		<path d="M255.953,111.98c-23.523,0-40.547-24.461-40.547-40.95c0-3.151,0.644-7.572,3.722-10.736
			c2.777-2.855,7.093-4.304,12.83-4.304c2.211,0,4-1.789,4-3.999c0-2.211-1.79-4-4-4c-7.979,0-14.224,2.266-18.567,6.726
			c-3.913,4.03-5.983,9.669-5.983,16.313c0,22.172,21.652,48.948,48.546,48.948c2.211,0,3.999-1.789,3.998-3.999
			C259.952,113.768,258.164,111.98,255.953,111.98z"/>
	</g>
</g>
<g>
	<g>
		<path d="M298.516,54.717c-4.342-4.46-10.584-6.726-18.566-6.726c-2.211,0-3.999,1.789-3.999,4c0,2.21,1.788,3.999,3.999,3.999
			c5.733,0,10.053,1.45,12.825,4.304c3.079,3.164,3.727,7.585,3.727,10.736c0,16.489-17.021,40.95-40.548,40.95
			c-2.21,0-3.999,1.788-3.999,3.999c0,2.21,1.789,3.999,3.999,3.999c26.894,0,48.546-26.776,48.545-48.948
			C304.499,64.387,302.429,58.747,298.516,54.717z"/>
	</g>
</g>
<g>
	<g>
		<path d="M367.933,503.91H255.954c-2.21,0-3.999,1.788-3.999,3.999c0,2.21,1.789,3.999,3.999,3.999h111.979
			c2.211,0,4-1.789,4-3.999C371.933,505.698,370.144,503.91,367.933,503.91z"/>
	</g>
</g>
<g>
	<g>
		<path d="M255.954,503.91H143.975c-2.211,0-4,1.788-4,3.999c0,2.21,1.789,3.999,4,3.999h111.979c2.211,0,3.999-1.789,3.999-3.999
			C259.953,505.698,258.165,503.91,255.954,503.91z"/>
	</g>
</g>
<g>
	<g>
		<path d="M255.954,207.963c-2.21,0-3.999,1.789-3.999,3.999V499.91c0,2.211,1.789,4,3.999,4c2.211,0,3.999-1.789,3.999-4V211.962
			C259.953,209.752,258.165,207.963,255.954,207.963z"/>
	</g>
</g>
<g>
	<g>
		<path d="M119.978,79.986c-28.666,0-51.99,23.323-51.99,51.99c0,2.211,1.789,3.999,3.999,3.999c2.211,0,4-1.788,3.999-3.999
			c0-24.258,19.735-43.992,43.992-43.992c2.211,0,4-1.789,4-3.999C123.978,81.774,122.189,79.986,119.978,79.986z"/>
	</g>
</g>
<g>
	<g>
		<path d="M87.985,423.924c-6.616,0-11.998-5.382-11.998-11.998c0-2.21-1.789-3.999-4-3.999c-2.21,0-3.999,1.789-3.999,3.999
			c0,11.029,8.971,19.997,19.996,19.997c2.211,0,4-1.789,4.001-3.999C91.985,425.713,90.196,423.924,87.985,423.924z"/>
	</g>
</g>
<g>
	<g>
		<path d="M111.98,423.924H87.984c-2.21,0-3.999,1.789-3.999,4c0,2.21,1.789,3.999,3.999,3.999h23.996
			c2.21,0,3.999-1.789,3.999-3.999C115.979,425.713,114.19,423.924,111.98,423.924z"/>
	</g>
</g>
<g>
	<g>
		<path d="M135.975,79.986h-15.997c-2.21,0-3.999,1.788-3.999,3.999c0,2.21,1.789,3.999,3.999,3.999h15.997c2.211,0,4-1.789,4-3.999
			C139.975,81.774,138.186,79.986,135.975,79.986z"/>
	</g>
</g>
<g>
	<g>
		<path d="M71.987,407.927c-2.207,0-3.999-1.796-3.999-3.999c0-2.211-1.789-4-3.999-4c-2.211,0-4,1.789-4,4
			c0,6.616,5.382,11.998,11.998,11.998c2.211,0,4-1.789,4-4C75.987,409.716,74.198,407.927,71.987,407.927z"/>
	</g>
</g>
<g>
	<g>
		<path d="M71.987,367.934c-6.616,0-11.998,5.383-11.998,11.998c0,2.211,1.789,4,4,4c2.21,0,3.999-1.79,3.999-4
			c0-2.202,1.792-3.999,3.999-3.999c2.211,0,4-1.789,4-3.999C75.987,369.723,74.198,367.934,71.987,367.934z"/>
	</g>
</g>
<g>
	<g>
		<path d="M63.989,375.933c-2.211,0-4,1.789-4,3.999v23.996c0,2.211,1.789,3.999,4,3.999c2.21,0,3.999-1.788,3.999-3.999v-23.996
			C67.988,377.722,66.199,375.933,63.989,375.933z"/>
	</g>
</g>
<g>
	<g>
		<path d="M79.986,407.927h-7.999c-2.21,0-3.999,1.789-3.999,3.999c0,2.211,1.789,4,3.999,4h7.999c2.21,0,3.999-1.789,3.999-4
			C83.985,409.716,82.196,407.927,79.986,407.927z"/>
	</g>
</g>
<g>
	<g>
		<path d="M71.987,367.934c-2.207,0-3.999-1.796-3.999-3.999c0-2.21-1.789-3.999-3.999-3.999c-2.211,0-4,1.789-4,3.999
			c0,6.616,5.382,11.998,11.998,11.998c2.211,0,4-1.79,4-3.999C75.987,369.723,74.198,367.934,71.987,367.934z"/>
	</g>
</g>
<g>
	<g>
		<path d="M71.987,327.941c-6.616,0-11.998,5.382-11.998,11.998c0,2.21,1.789,3.999,4,3.999c2.21,0,3.999-1.789,3.999-3.999
			c0-2.203,1.792-4,3.999-4c2.211,0,4-1.788,4-3.999C75.987,329.73,74.198,327.941,71.987,327.941z"/>
	</g>
</g>
<g>
	<g>
		<path d="M63.989,335.939c-2.211,0-4,1.789-4,4v23.995c0,2.211,1.789,3.999,4,3.999c2.21,0,3.999-1.788,3.999-3.999v-23.995
			C67.988,337.728,66.199,335.939,63.989,335.939z"/>
	</g>
</g>
<g>
	<g>
		<path d="M79.986,367.934h-7.999c-2.21,0-3.999,1.789-3.999,4c0,2.21,1.789,3.999,3.999,3.999h7.999c2.21,0,3.999-1.79,3.999-3.999
			C83.985,369.723,82.196,367.934,79.986,367.934z"/>
	</g>
</g>
<g>
	<g>
		<path d="M71.987,327.941c-2.207,0-3.999-1.797-3.999-4c0-2.21-1.789-3.999-3.999-3.999c-2.211,0-4,1.789-4,3.999
			c0,6.617,5.382,11.998,11.998,11.998c2.211,0,4-1.788,4-3.999C75.987,329.73,74.198,327.941,71.987,327.941z"/>
	</g>
</g>
<g>
	<g>
		<path d="M71.987,287.948c-6.616,0-11.998,5.382-11.998,11.998c0,2.211,1.789,3.999,4,3.999c2.21,0,3.999-1.788,3.999-3.999
			c0-2.202,1.792-3.999,3.999-3.999c2.211,0,4-1.789,4-4C75.987,289.737,74.198,287.948,71.987,287.948z"/>
	</g>
</g>
<g>
	<g>
		<path d="M63.989,295.947c-2.211,0-4,1.789-4,3.999v23.995c0,2.211,1.789,4,4,4c2.21,0,3.999-1.789,3.999-4v-23.995
			C67.988,297.736,66.199,295.947,63.989,295.947z"/>
	</g>
</g>
<g>
	<g>
		<path d="M79.986,327.941h-7.999c-2.21,0-3.999,1.789-3.999,3.999c0,2.211,1.789,3.999,3.999,3.999h7.999
			c2.21,0,3.999-1.788,3.999-3.999C83.985,329.73,82.196,327.941,79.986,327.941z"/>
	</g>
</g>
<g>
	<g>
		<path d="M71.987,287.948c-2.207,0-3.999-1.796-3.999-3.999c0-2.211-1.789-3.999-3.999-3.999c-2.211,0-4,1.788-4,3.999
			c0,6.616,5.382,11.998,11.998,11.998c2.211,0,4-1.789,4-4C75.987,289.737,74.198,287.948,71.987,287.948z"/>
	</g>
</g>
<g>
	<g>
		<path d="M71.987,247.956c-6.616,0-11.998,5.382-11.998,11.997c0,2.211,1.789,4,4,4c2.21,0,3.999-1.789,3.999-4
			c0-2.206,1.792-3.999,3.999-3.999c2.211,0,4-1.789,4-3.999C75.987,249.744,74.198,247.956,71.987,247.956z"/>
	</g>
</g>
<g>
	<g>
		<path d="M63.989,255.954c-2.211,0-4,1.789-4,3.999v23.996c0,2.211,1.789,3.999,4,3.999c2.21,0,3.999-1.788,3.999-3.999v-23.996
			C67.988,257.743,66.199,255.954,63.989,255.954z"/>
	</g>
</g>
<g>
	<g>
		<path d="M79.986,287.948h-7.999c-2.21,0-3.999,1.789-3.999,3.999c0,2.211,1.789,4,3.999,4h7.999c2.21,0,3.999-1.789,3.999-4
			C83.985,289.737,82.196,287.948,79.986,287.948z"/>
	</g>
</g>
<g>
	<g>
		<path d="M71.987,247.956c-2.207,0-3.999-1.793-3.999-4c0-2.21-1.789-3.999-3.999-3.999c-2.211,0-4,1.789-4,3.999
			c0,6.616,5.382,11.998,11.998,11.998c2.211,0,4-1.789,4-3.999C75.987,249.744,74.198,247.956,71.987,247.956z"/>
	</g>
</g>
<g>
	<g>
		<path d="M71.987,207.963c-6.616,0-11.998,5.382-11.998,11.998c0,2.21,1.789,3.999,4,3.999c2.21,0,3.999-1.789,3.999-3.999
			c0-2.207,1.792-4,3.999-4c2.211,0,4-1.788,4-3.999C75.987,209.752,74.198,207.963,71.987,207.963z"/>
	</g>
</g>
<g>
	<g>
		<path d="M63.989,215.961c-2.211,0-4,1.789-4,4v23.995c0,2.211,1.789,4,4,4c2.21,0,3.999-1.789,3.999-4v-23.995
			C67.988,217.75,66.199,215.961,63.989,215.961z"/>
	</g>
</g>
<g>
	<g>
		<path d="M79.986,247.956h-7.999c-2.21,0-3.999,1.788-3.999,3.999c0,2.21,1.789,3.999,3.999,3.999h7.999
			c2.21,0,3.999-1.789,3.999-3.999C83.985,249.744,82.196,247.956,79.986,247.956z"/>
	</g>
</g>
<g>
	<g>
		<path d="M71.987,207.963c-2.207,0-3.999-1.793-3.999-3.999c0-2.211-1.789-4-3.999-4c-2.211,0-4,1.789-4,4
			c0,6.615,5.382,11.997,11.998,11.997c2.211,0,4-1.788,4-3.999C75.987,209.752,74.198,207.963,71.987,207.963z"/>
	</g>
</g>
<g>
	<g>
		<path d="M71.987,167.97c-6.616,0-11.998,5.382-11.998,11.998c0,2.211,1.789,3.999,4,3.999c2.21,0,3.999-1.788,3.999-3.999
			c0-2.207,1.792-3.999,3.999-3.999c2.211,0,4-1.789,4-3.999C75.987,169.759,74.198,167.97,71.987,167.97z"/>
	</g>
</g>
<g>
	<g>
		<path d="M63.989,175.969c-2.211,0-4,1.788-4,3.999v23.996c0,2.21,1.789,3.999,4,3.999c2.21,0,3.999-1.789,3.999-3.999v-23.996
			C67.988,177.757,66.199,175.969,63.989,175.969z"/>
	</g>
</g>
<g>
	<g>
		<path d="M79.986,207.963h-7.999c-2.21,0-3.999,1.789-3.999,3.999c0,2.211,1.789,3.999,3.999,3.999h7.999
			c2.21,0,3.999-1.788,3.999-3.999C83.985,209.752,82.196,207.963,79.986,207.963z"/>
	</g>
</g>
<g>
	<g>
		<path d="M71.987,167.97c-2.207,0-3.999-1.792-3.999-3.999c0-2.211-1.789-3.999-3.999-3.999c-2.211,0-4,1.788-4,3.999
			c0,6.616,5.382,11.998,11.998,11.998c2.211,0,4-1.789,4-3.999C75.987,169.759,74.198,167.97,71.987,167.97z"/>
	</g>
</g>
<g>
	<g>
		<path d="M71.987,127.978c-6.616,0-11.998,5.382-11.998,11.997c0,2.211,1.789,4,4,4c2.21,0,3.999-1.79,3.999-4
			c0-2.206,1.792-3.999,3.999-3.999c2.211,0,4-1.788,4-3.999S74.198,127.978,71.987,127.978z"/>
	</g>
</g>
<g>
	<g>
		<path d="M63.989,135.976c-2.211,0-4,1.789-4,3.999v23.996c0,2.211,1.789,3.999,4,3.999c2.21,0,3.999-1.788,3.999-3.999v-23.996
			C67.988,137.765,66.199,135.976,63.989,135.976z"/>
	</g>
</g>
<g>
	<g>
		<path d="M79.986,167.97h-7.999c-2.21,0-3.999,1.789-3.999,4c0,2.21,1.789,3.999,3.999,3.999h7.999c2.21,0,3.999-1.789,3.999-3.999
			C83.985,169.759,82.196,167.97,79.986,167.97z"/>
	</g>
</g>
<g>
	<g>
		<path d="M79.986,127.977h-7.999c-2.21,0-3.999,1.788-3.999,3.999s1.789,3.999,3.999,3.999h7.999c2.21,0,3.999-1.788,3.999-3.999
			S82.196,127.977,79.986,127.977z"/>
	</g>
</g>
<g>
	<g>
		<path d="M391.93,79.986c-2.211,0-3.999,1.788-3.999,3.999c0,2.21,1.788,3.999,3.999,3.999c24.262,0,43.992,19.734,43.992,43.992
			c0,2.211,1.789,3.999,3.999,3.999c2.211,0,3.999-1.788,3.999-3.999C443.92,103.309,420.597,79.986,391.93,79.986z"/>
	</g>
</g>
<g>
	<g>
		<path d="M439.921,407.927c-2.21,0-3.999,1.789-3.999,3.999c0,6.616-5.382,11.998-11.998,11.998c-2.211,0-3.999,1.789-3.999,4
			c0,2.21,1.788,3.999,3.999,3.999c11.029,0,19.996-8.968,19.996-19.997C443.92,409.716,442.132,407.927,439.921,407.927z"/>
	</g>
</g>
<g>
	<g>
		<path d="M423.924,423.924h-23.996c-2.21,0-3.999,1.789-3.999,4c0,2.21,1.789,3.999,3.999,3.999h23.996c2.211,0,4-1.789,4-3.999
			C427.924,425.713,426.135,423.924,423.924,423.924z"/>
	</g>
</g>
<g>
	<g>
		<path d="M447.92,399.928c-2.211,0-4,1.789-4,4c0,2.203-1.796,3.999-3.999,3.999c-2.21,0-3.999,1.789-3.999,3.999
			c0,2.211,1.789,4,3.999,4c6.616,0,11.998-5.382,11.998-11.998C451.919,401.717,450.13,399.928,447.92,399.928z"/>
	</g>
</g>
<g>
	<g>
		<path d="M439.921,367.934c-2.21,0-3.999,1.789-3.999,4c0,2.21,1.789,3.999,3.999,3.999c2.203,0,3.999,1.797,3.999,3.999
			c0,2.211,1.789,4,4,4c2.21,0,3.999-1.79,3.999-4C451.919,373.317,446.537,367.934,439.921,367.934z"/>
	</g>
</g>
<g>
	<g>
		<path d="M447.92,375.933c-2.211,0-4,1.789-4,3.999v23.996c0,2.211,1.789,3.999,4,3.999c2.21,0,3.999-1.788,3.999-3.999v-23.996
			C451.919,377.722,450.13,375.933,447.92,375.933z"/>
	</g>
</g>
<g>
	<g>
		<path d="M439.921,407.927h-7.998c-2.211,0-3.999,1.789-3.999,3.999c0,2.211,1.788,4,3.999,4h7.998c2.211,0,3.999-1.789,3.999-4
			C443.92,409.716,442.132,407.927,439.921,407.927z"/>
	</g>
</g>
<g>
	<g>
		<path d="M447.92,359.936c-2.211,0-4,1.789-4,3.999c0,2.203-1.796,3.999-3.999,3.999c-2.21,0-3.999,1.789-3.999,4
			c0,2.21,1.789,3.999,3.999,3.999c6.616,0,11.998-5.382,11.998-11.998C451.919,361.725,450.13,359.936,447.92,359.936z"/>
	</g>
</g>
<g>
	<g>
		<path d="M439.921,327.941c-2.21,0-3.999,1.789-3.999,3.999c0,2.211,1.789,3.999,3.999,3.999c2.203,0,3.999,1.797,3.999,4
			c0,2.21,1.789,3.999,4,3.999c2.21,0,3.999-1.789,3.999-3.999C451.919,333.323,446.537,327.941,439.921,327.941z"/>
	</g>
</g>
<g>
	<g>
		<path d="M447.92,335.939c-2.211,0-4,1.789-4,4v23.995c0,2.211,1.789,3.999,4,3.999c2.21,0,3.999-1.788,3.999-3.999v-23.995
			C451.919,337.728,450.13,335.939,447.92,335.939z"/>
	</g>
</g>
<g>
	<g>
		<path d="M439.921,367.934h-7.998c-2.211,0-3.999,1.789-3.999,4c0,2.21,1.788,3.999,3.999,3.999h7.998
			c2.211,0,3.999-1.79,3.999-3.999C443.92,369.723,442.132,367.934,439.921,367.934z"/>
	</g>
</g>
<g>
	<g>
		<path d="M447.92,319.942c-2.211,0-4,1.789-4,3.999c0,2.203-1.796,4-3.999,4c-2.21,0-3.999,1.789-3.999,3.999
			c0,2.211,1.789,3.999,3.999,3.999c6.616,0,11.998-5.381,11.998-11.998C451.919,321.731,450.13,319.942,447.92,319.942z"/>
	</g>
</g>
<g>
	<g>
		<path d="M439.921,287.948c-2.21,0-3.999,1.789-3.999,3.999c0,2.211,1.789,4,3.999,4c2.203,0,3.999,1.797,3.999,3.999
			c0,2.211,1.789,3.999,4,3.999c2.21,0,3.999-1.788,3.999-3.999C451.919,293.33,446.537,287.948,439.921,287.948z"/>
	</g>
</g>
<g>
	<g>
		<path d="M447.92,295.947c-2.211,0-4,1.789-4,3.999v23.995c0,2.211,1.789,4,4,4c2.21,0,3.999-1.789,3.999-4v-23.995
			C451.919,297.736,450.13,295.947,447.92,295.947z"/>
	</g>
</g>
<g>
	<g>
		<path d="M439.921,327.941h-7.998c-2.211,0-3.999,1.789-3.999,3.999c0,2.211,1.788,3.999,3.999,3.999h7.998
			c2.211,0,3.999-1.788,3.999-3.999C443.92,329.73,442.132,327.941,439.921,327.941z"/>
	</g>
</g>
<g>
	<g>
		<path d="M447.92,279.95c-2.211,0-4,1.788-4,3.999c0,2.203-1.796,3.999-3.999,3.999c-2.21,0-3.999,1.789-3.999,3.999
			c0,2.211,1.789,4,3.999,4c6.616,0,11.998-5.382,11.998-11.998C451.919,281.738,450.13,279.95,447.92,279.95z"/>
	</g>
</g>
<g>
	<g>
		<path d="M439.921,247.956c-2.21,0-3.999,1.788-3.999,3.999c0,2.21,1.789,3.999,3.999,3.999c2.203,0,3.999,1.793,3.999,3.999
			c0,2.211,1.789,4,4,4c2.21,0,3.999-1.789,3.999-4C451.919,253.338,446.537,247.956,439.921,247.956z"/>
	</g>
</g>
<g>
	<g>
		<path d="M447.92,255.954c-2.211,0-4,1.789-4,3.999v23.996c0,2.211,1.789,3.999,4,3.999c2.21,0,3.999-1.788,3.999-3.999v-23.996
			C451.919,257.743,450.13,255.954,447.92,255.954z"/>
	</g>
</g>
<g>
	<g>
		<path d="M439.921,287.948h-7.998c-2.211,0-3.999,1.789-3.999,3.999c0,2.211,1.788,4,3.999,4h7.998c2.211,0,3.999-1.789,3.999-4
			C443.92,289.737,442.132,287.948,439.921,287.948z"/>
	</g>
</g>
<g>
	<g>
		<path d="M447.92,239.957c-2.211,0-4,1.789-4,3.999c0,2.207-1.796,4-3.999,4c-2.21,0-3.999,1.788-3.999,3.999
			c0,2.21,1.789,3.999,3.999,3.999c6.616,0,11.998-5.382,11.998-11.998C451.919,241.746,450.13,239.957,447.92,239.957z"/>
	</g>
</g>
<g>
	<g>
		<path d="M439.921,207.963c-2.21,0-3.999,1.789-3.999,3.999c0,2.211,1.789,3.999,3.999,3.999c2.203,0,3.999,1.793,3.999,4
			c0,2.21,1.789,3.999,4,3.999c2.21,0,3.999-1.789,3.999-3.999C451.919,213.345,446.537,207.963,439.921,207.963z"/>
	</g>
</g>
<g>
	<g>
		<path d="M447.92,215.961c-2.211,0-4,1.789-4,4v23.995c0,2.211,1.789,4,4,4c2.21,0,3.999-1.789,3.999-4v-23.995
			C451.919,217.75,450.13,215.961,447.92,215.961z"/>
	</g>
</g>
<g>
	<g>
		<path d="M439.921,247.956h-7.998c-2.211,0-3.999,1.788-3.999,3.999c0,2.21,1.788,3.999,3.999,3.999h7.998
			c2.211,0,3.999-1.789,3.999-3.999C443.92,249.744,442.132,247.956,439.921,247.956z"/>
	</g>
</g>
<g>
	<g>
		<path d="M447.92,199.964c-2.211,0-4,1.789-4,4c0,2.206-1.796,3.999-3.999,3.999c-2.21,0-3.999,1.789-3.999,3.999
			c0,2.211,1.789,3.999,3.999,3.999c6.616,0,11.998-5.382,11.998-11.997C451.919,201.753,450.13,199.964,447.92,199.964z"/>
	</g>
</g>
<g>
	<g>
		<path d="M439.921,167.97c-2.21,0-3.999,1.789-3.999,4c0,2.21,1.789,3.999,3.999,3.999c2.203,0,3.999,1.792,3.999,3.999
			c0,2.211,1.789,3.999,4,3.999c2.21,0,3.999-1.788,3.999-3.999C451.919,173.352,446.537,167.97,439.921,167.97z"/>
	</g>
</g>
<g>
	<g>
		<path d="M447.92,175.969c-2.211,0-4,1.788-4,3.999v23.996c0,2.21,1.789,3.999,4,3.999c2.21,0,3.999-1.789,3.999-3.999v-23.996
			C451.919,177.757,450.13,175.969,447.92,175.969z"/>
	</g>
</g>
<g>
	<g>
		<path d="M439.921,207.963h-7.998c-2.211,0-3.999,1.789-3.999,3.999c0,2.211,1.788,3.999,3.999,3.999h7.998
			c2.211,0,3.999-1.788,3.999-3.999C443.92,209.752,442.132,207.963,439.921,207.963z"/>
	</g>
</g>
<g>
	<g>
		<path d="M447.92,159.972c-2.211,0-4,1.788-4,3.999c0,2.207-1.796,3.999-3.999,3.999c-2.21,0-3.999,1.789-3.999,4
			c0,2.21,1.789,3.999,3.999,3.999c6.616,0,11.998-5.382,11.998-11.998C451.919,161.76,450.13,159.972,447.92,159.972z"/>
	</g>
</g>
<g>
	<g>
		<path d="M439.921,127.978c-2.21,0-3.999,1.788-3.999,3.999s1.789,3.999,3.999,3.999c2.203,0,3.999,1.793,3.999,3.999
			c0,2.211,1.789,4,4,4c2.21,0,3.999-1.79,3.999-4C451.919,133.36,446.537,127.978,439.921,127.978z"/>
	</g>
</g>
<g>
	<g>
		<path d="M447.92,135.976c-2.211,0-4,1.789-4,3.999v23.996c0,2.211,1.789,3.999,4,3.999c2.21,0,3.999-1.788,3.999-3.999v-23.996
			C451.919,137.765,450.13,135.976,447.92,135.976z"/>
	</g>
</g>
<g>
	<g>
		<path d="M439.921,167.97h-7.998c-2.211,0-3.999,1.789-3.999,4c0,2.21,1.788,3.999,3.999,3.999h7.998
			c2.211,0,3.999-1.789,3.999-3.999C443.92,169.759,442.132,167.97,439.921,167.97z"/>
	</g>
</g>
<g>
	<g>
		<path d="M439.921,127.977h-7.998c-2.211,0-3.999,1.788-3.999,3.999s1.788,3.999,3.999,3.999h7.998
			c2.211,0,3.999-1.788,3.999-3.999S442.132,127.977,439.921,127.977z"/>
	</g>
</g>
<g>
	<g>
		<path d="M391.93,79.986h-15.997c-2.21,0-3.999,1.788-3.999,3.999c0,2.21,1.789,3.999,3.999,3.999h15.997
			c2.211,0,3.999-1.789,3.999-3.999C395.929,81.774,394.141,79.986,391.93,79.986z"/>
	</g>
</g>
<g>
	<g>
		<path d="M143.976,503.91c-11.588,0-19.997-8.405-19.997-19.997c0-2.21-1.789-3.999-4-3.999c-2.21,0-3.999,1.789-3.999,3.999
			c0,15.958,12.037,27.995,27.995,27.995c2.21,0,3.999-1.789,4-3.999C147.975,505.698,146.186,503.91,143.976,503.91z"/>
	</g>
</g>
<g>
	<g>
		<path d="M127.978,223.96c-2.208,0-4-1.793-4-3.999c0-2.211-1.789-4-4-4c-2.21,0-3.999,1.789-3.999,4
			c0,6.615,5.382,11.997,11.998,11.997c2.211,0,3.999-1.788,4-3.999C131.977,225.749,130.188,223.96,127.978,223.96z"/>
	</g>
</g>
<g>
	<g>
		<path d="M119.978,191.966c-2.21,0-3.999,1.789-3.999,3.999v23.996c0,2.21,1.789,3.999,3.999,3.999c2.211,0,4-1.789,4-3.999
			v-23.996C123.978,193.755,122.189,191.966,119.978,191.966z"/>
	</g>
</g>
<g>
	<g>
		<path d="M159.972,223.96h-31.994c-2.211,0-4,1.789-4,3.999c0,2.211,1.789,3.999,4,3.999h31.994c2.21,0,3.999-1.788,3.999-3.999
			C163.971,225.749,162.182,223.96,159.972,223.96z"/>
	</g>
</g>
<g>
	<g>
		<path d="M127.978,263.953c-2.208,0-4-1.793-4-4c0-2.21-1.789-3.999-4-3.999c-2.21,0-3.999,1.789-3.999,3.999
			c0,6.616,5.382,11.998,11.998,11.998c2.211,0,3.999-1.789,4-3.999C131.977,265.741,130.188,263.953,127.978,263.953z"/>
	</g>
</g>
<g>
	<g>
		<path d="M127.977,223.96c-6.616,0-11.998,5.382-11.998,11.998c0,2.21,1.789,3.999,3.999,3.999c2.211,0,4-1.789,3.999-3.999
			c0-2.207,1.793-4,4-4c2.21,0,3.999-1.788,3.999-3.999C131.976,225.749,130.187,223.96,127.977,223.96z"/>
	</g>
</g>
<g>
	<g>
		<path d="M119.978,231.958c-2.21,0-3.999,1.789-3.999,4v23.995c0,2.211,1.789,4,3.999,4c2.211,0,4-1.789,4-4v-23.995
			C123.978,233.747,122.189,231.958,119.978,231.958z"/>
	</g>
</g>
<g>
	<g>
		<path d="M159.972,263.953h-31.994c-2.211,0-4,1.788-4,3.999c0,2.21,1.789,3.999,4,3.999h31.994c2.21,0,3.999-1.789,3.999-3.999
			C163.971,265.741,162.182,263.953,159.972,263.953z"/>
	</g>
</g>
<g>
	<g>
		<path d="M127.978,303.945c-2.208,0-4-1.796-4-3.999c0-2.21-1.789-3.999-4-3.999c-2.21,0-3.999,1.789-3.999,3.999
			c0,6.616,5.382,11.998,11.998,11.998c2.211,0,3.999-1.789,4-3.999C131.977,305.734,130.188,303.945,127.978,303.945z"/>
	</g>
</g>
<g>
	<g>
		<path d="M127.977,263.961c-6.616,0-11.998,5.382-11.998,11.99c0,2.21,1.789,3.999,3.999,3.999c2.211,0,4-1.789,3.999-3.999
			c0-2.203,1.793-3.992,4-3.992c2.21,0,3.999-1.789,3.999-3.999C131.976,265.749,130.187,263.961,127.977,263.961z"/>
	</g>
</g>
<g>
	<g>
		<path d="M119.978,271.951c-2.21,0-3.999,1.789-3.999,4v23.995c0,2.211,1.789,3.999,3.999,3.999c2.211,0,4-1.788,4-3.999v-23.995
			C123.978,273.74,122.189,271.951,119.978,271.951z"/>
	</g>
</g>
<g>
	<g>
		<path d="M159.972,303.945h-31.994c-2.211,0-4,1.789-4,4c0,2.21,1.789,3.999,4,3.999h31.994c2.21,0,3.999-1.789,3.999-3.999
			C163.971,305.734,162.182,303.945,159.972,303.945z"/>
	</g>
</g>
<g>
	<g>
		<path d="M127.978,343.938c-2.208,0-4-1.797-4-3.999c0-2.211-1.789-4-4-4c-2.21,0-3.999,1.789-3.999,4
			c0,6.615,5.382,11.998,11.998,11.998c2.211,0,4-1.789,4-4S130.188,343.938,127.978,343.938z"/>
	</g>
</g>
<g>
	<g>
		<path d="M127.977,303.953c-6.616,0-11.998,5.382-11.998,11.99c0,2.211,1.789,3.999,3.999,3.999c2.211,0,4-1.788,3.999-3.999
			c0-2.203,1.793-3.991,4-3.991c2.21,0,3.999-1.789,3.999-3.999C131.976,305.742,130.187,303.953,127.977,303.953z"/>
	</g>
</g>
<g>
	<g>
		<path d="M119.978,311.944c-2.21,0-3.999,1.788-3.999,3.999v23.996c0,2.21,1.789,3.999,3.999,3.999c2.211,0,4-1.789,4-3.999
			v-23.996C123.978,313.732,122.189,311.944,119.978,311.944z"/>
	</g>
</g>
<g>
	<g>
		<path d="M159.972,343.938h-31.994c-2.211,0-4,1.788-4,3.999s1.789,4,4,4h31.994c2.21,0,3.999-1.789,3.999-4
			S162.182,343.938,159.972,343.938z"/>
	</g>
</g>
<g>
	<g>
		<path d="M127.978,383.932c-2.208,0-4-1.797-4-4c0-2.21-1.789-3.999-4-3.999c-2.21,0-3.999,1.789-3.999,3.999
			c0,6.616,5.382,11.998,11.998,11.998c2.211,0,3.999-1.789,4-3.999C131.977,385.72,130.188,383.932,127.978,383.932z"/>
	</g>
</g>
<g>
	<g>
		<path d="M127.977,343.954c-6.616,0-11.998,5.374-11.998,11.982c0,2.21,1.789,3.999,3.999,3.999c2.211,0,4-1.789,3.999-3.999
			c0-2.195,1.793-3.983,4-3.983c2.21,0,3.999-1.789,3.999-4S130.187,343.954,127.977,343.954z"/>
	</g>
</g>
<g>
	<g>
		<path d="M119.978,351.938c-2.21,0-3.999,1.788-3.999,3.999v23.995c0,2.211,1.789,4,3.999,4c2.211,0,4-1.79,4-4v-23.995
			C123.978,353.726,122.189,351.938,119.978,351.938z"/>
	</g>
</g>
<g>
	<g>
		<path d="M159.972,383.932h-31.994c-2.211,0-4,1.788-4,3.999c0,2.21,1.789,3.999,4,3.999h31.994c2.21,0,3.999-1.789,3.999-3.999
			C163.971,385.72,162.182,383.932,159.972,383.932z"/>
	</g>
</g>
<g>
	<g>
		<path d="M127.978,423.924c-2.208,0-4-1.797-4-3.999c0-2.211-1.789-3.999-4-3.999c-2.21,0-3.999,1.788-3.999,3.999
			c0,6.616,5.382,11.998,11.998,11.998c2.211,0,3.999-1.789,4-3.999C131.977,425.713,130.188,423.924,127.978,423.924z"/>
	</g>
</g>
<g>
	<g>
		<path d="M127.977,383.948c-6.616,0-11.998,5.373-11.998,11.981c0,2.211,1.789,3.999,3.999,3.999c2.211,0,4-1.788,3.999-3.999
			c0-2.194,1.793-3.983,4-3.983c2.21,0,3.999-1.789,3.999-3.999C131.976,385.736,130.187,383.948,127.977,383.948z"/>
	</g>
</g>
<g>
	<g>
		<path d="M119.978,391.93c-2.21,0-3.999,1.789-3.999,3.999v23.996c0,2.21,1.789,3.999,3.999,3.999c2.211,0,4-1.789,4-3.999v-23.996
			C123.978,393.719,122.189,391.93,119.978,391.93z"/>
	</g>
</g>
<g>
	<g>
		<path d="M159.972,423.924h-31.994c-2.211,0-4,1.789-4,4c0,2.21,1.789,3.999,4,3.999h31.994c2.21,0,3.999-1.789,3.999-3.999
			C163.971,425.713,162.182,423.924,159.972,423.924z"/>
	</g>
</g>
<g>
	<g>
		<path d="M127.978,463.917c-2.208,0-4-1.797-4-3.999c0-2.211-1.789-4-4-4c-2.21,0-3.999,1.789-3.999,4
			c0,6.615,5.382,11.997,11.998,11.997c2.211,0,4-1.788,4-3.999S130.188,463.917,127.978,463.917z"/>
	</g>
</g>
<g>
	<g>
		<path d="M127.977,423.94c-6.616,0-11.998,5.374-11.998,11.982c0,2.211,1.789,3.999,3.999,3.999c2.211,0,4-1.788,3.999-3.999
			c0-2.195,1.793-3.983,4-3.983c2.21,0,3.999-1.789,3.999-3.999C131.976,425.729,130.187,423.94,127.977,423.94z"/>
	</g>
</g>
<g>
	<g>
		<path d="M119.978,431.923c-2.21,0-3.999,1.788-3.999,3.999v23.996c0,2.21,1.789,3.999,3.999,3.999c2.211,0,4-1.789,4-3.999
			v-23.996C123.978,433.711,122.189,431.923,119.978,431.923z"/>
	</g>
</g>
<g>
	<g>
		<path d="M159.972,463.917h-31.994c-2.211,0-4,1.788-4,3.999s1.789,3.999,4,3.999h31.994c2.21,0,3.999-1.788,3.999-3.999
			S162.182,463.917,159.972,463.917z"/>
	</g>
</g>
<g>
	<g>
		<path d="M119.978,455.918c-2.21,0-3.999,1.789-3.999,4v23.995c0,2.211,1.789,3.999,3.999,3.999c2.211,0,4-1.788,4-3.999v-23.995
			C123.978,457.707,122.189,455.918,119.978,455.918z"/>
	</g>
</g>
<g>
	<g>
		<path d="M391.929,479.914c-2.211,0-3.999,1.789-3.999,3.999c0,11.592-8.405,19.997-19.997,19.997c-2.21,0-3.999,1.788-3.999,3.999
			c0,2.21,1.789,3.999,3.999,3.999c15.959,0,27.996-12.037,27.995-27.995C395.928,481.703,394.14,479.914,391.929,479.914z"/>
	</g>
</g>
<g>
	<g>
		<path d="M391.93,215.961c-2.211,0-3.999,1.789-3.999,4c0,2.206-1.797,3.999-3.999,3.999c-2.211,0-4,1.789-4,3.999
			c0,2.211,1.789,3.999,4,3.999c6.615,0,11.997-5.382,11.997-11.997C395.929,217.75,394.141,215.961,391.93,215.961z"/>
	</g>
</g>
<g>
	<g>
		<path d="M391.93,191.966c-2.211,0-3.999,1.789-3.999,3.999v23.996c0,2.21,1.788,3.999,3.999,3.999s3.999-1.789,3.999-3.999
			v-23.996C395.929,193.755,394.141,191.966,391.93,191.966z"/>
	</g>
</g>
<g>
	<g>
		<path d="M383.932,223.96h-31.994c-2.211,0-4,1.789-4,3.999c0,2.211,1.789,3.999,4,3.999h31.994c2.21,0,3.999-1.788,3.999-3.999
			C387.931,225.749,386.142,223.96,383.932,223.96z"/>
	</g>
</g>
<g>
	<g>
		<path d="M391.93,255.954c-2.211,0-3.999,1.789-3.999,3.999c0,2.207-1.797,4-3.999,4c-2.211,0-4,1.788-4,3.999
			c0,2.21,1.789,3.999,4,3.999c6.615,0,11.997-5.382,11.997-11.998C395.929,257.743,394.141,255.954,391.93,255.954z"/>
	</g>
</g>
<g>
	<g>
		<path d="M383.932,223.96c-2.211,0-4,1.789-4,3.999c0,2.211,1.789,3.999,4,3.999c2.202,0,3.999,1.793,3.999,4
			c0,2.21,1.788,3.999,3.999,3.999s3.999-1.789,3.999-3.999C395.929,229.342,390.547,223.96,383.932,223.96z"/>
	</g>
</g>
<g>
	<g>
		<path d="M391.93,231.958c-2.211,0-3.999,1.789-3.999,4v23.995c0,2.211,1.788,4,3.999,4s3.999-1.789,3.999-4v-23.995
			C395.929,233.747,394.141,231.958,391.93,231.958z"/>
	</g>
</g>
<g>
	<g>
		<path d="M383.932,263.953h-31.994c-2.211,0-4,1.788-4,3.999c0,2.21,1.789,3.999,4,3.999h31.994c2.21,0,3.999-1.789,3.999-3.999
			C387.931,265.741,386.142,263.953,383.932,263.953z"/>
	</g>
</g>
<g>
	<g>
		<path d="M391.93,295.947c-2.211,0-3.999,1.789-3.999,3.999c0,2.203-1.797,3.999-3.999,3.999c-2.211,0-4,1.789-4,4
			c0,2.21,1.789,3.999,4,3.999c6.615,0,11.997-5.382,11.997-11.998C395.929,297.736,394.141,295.947,391.93,295.947z"/>
	</g>
</g>
<g>
	<g>
		<path d="M383.932,263.961c-2.211,0-4,1.788-4,3.999c0,2.21,1.789,3.999,4,3.999c2.202,0,3.999,1.789,3.999,3.992
			c0,2.21,1.788,3.999,3.999,3.999s3.999-1.789,3.999-3.999C395.929,269.343,390.547,263.961,383.932,263.961z"/>
	</g>
</g>
<g>
	<g>
		<path d="M391.93,271.951c-2.211,0-3.999,1.789-3.999,4v23.995c0,2.211,1.788,3.999,3.999,3.999s3.999-1.788,3.999-3.999v-23.995
			C395.929,273.74,394.141,271.951,391.93,271.951z"/>
	</g>
</g>
<g>
	<g>
		<path d="M383.932,303.945h-31.994c-2.211,0-4,1.789-4,4c0,2.21,1.789,3.999,4,3.999h31.994c2.21,0,3.999-1.789,3.999-3.999
			C387.931,305.734,386.142,303.945,383.932,303.945z"/>
	</g>
</g>
<g>
	<g>
		<path d="M391.93,335.939c-2.211,0-3.999,1.789-3.999,4c0,2.202-1.797,3.999-3.999,3.999c-2.211,0-4,1.788-4,3.999s1.789,4,4,4
			c6.615,0,11.997-5.382,11.997-11.998C395.929,337.728,394.141,335.939,391.93,335.939z"/>
	</g>
</g>
<g>
	<g>
		<path d="M383.932,303.953c-2.211,0-4,1.789-4,4c0,2.21,1.789,3.999,4,3.999c2.202,0,3.999,1.788,3.999,3.991
			c0,2.211,1.788,3.999,3.999,3.999s3.999-1.788,3.999-3.999C395.929,309.335,390.547,303.953,383.932,303.953z"/>
	</g>
</g>
<g>
	<g>
		<path d="M391.93,311.944c-2.211,0-3.999,1.788-3.999,3.999v23.996c0,2.21,1.788,3.999,3.999,3.999s3.999-1.789,3.999-3.999
			v-23.996C395.929,313.732,394.141,311.944,391.93,311.944z"/>
	</g>
</g>
<g>
	<g>
		<path d="M383.932,343.938h-31.994c-2.211,0-4,1.788-4,3.999s1.789,4,4,4h31.994c2.21,0,3.999-1.789,3.999-4
			S386.142,343.938,383.932,343.938z"/>
	</g>
</g>
<g>
	<g>
		<path d="M391.93,375.933c-2.211,0-3.999,1.789-3.999,3.999c0,2.203-1.797,4-3.999,4c-2.211,0-4,1.788-4,3.999
			c0,2.21,1.789,3.999,4,3.999c6.615,0,11.997-5.382,11.997-11.998C395.929,377.722,394.141,375.933,391.93,375.933z"/>
	</g>
</g>
<g>
	<g>
		<path d="M383.932,343.954c-2.211,0-4,1.788-4,3.999s1.789,4,4,4c2.202,0,3.999,1.788,3.999,3.983c0,2.21,1.788,3.999,3.999,3.999
			s3.999-1.789,3.999-3.999C395.929,349.328,390.547,343.954,383.932,343.954z"/>
	</g>
</g>
<g>
	<g>
		<path d="M391.93,351.938c-2.211,0-3.999,1.788-3.999,3.999v23.995c0,2.211,1.788,4,3.999,4s3.999-1.79,3.999-4v-23.995
			C395.929,353.726,394.141,351.938,391.93,351.938z"/>
	</g>
</g>
<g>
	<g>
		<path d="M383.932,383.932h-31.994c-2.211,0-4,1.788-4,3.999c0,2.21,1.789,3.999,4,3.999h31.994c2.21,0,3.999-1.789,3.999-3.999
			C387.931,385.72,386.142,383.932,383.932,383.932z"/>
	</g>
</g>
<g>
	<g>
		<path d="M391.93,415.926c-2.211,0-3.999,1.788-3.999,3.999c0,2.202-1.797,3.999-3.999,3.999c-2.211,0-4,1.789-4,4
			c0,2.21,1.789,3.999,4,3.999c6.615,0,11.997-5.382,11.997-11.998C395.929,417.714,394.141,415.926,391.93,415.926z"/>
	</g>
</g>
<g>
	<g>
		<path d="M383.932,383.948c-2.211,0-4,1.788-4,3.999c0,2.21,1.789,3.999,4,3.999c2.202,0,3.999,1.789,3.999,3.983
			c0,2.211,1.788,3.999,3.999,3.999s3.999-1.788,3.999-3.999C395.929,389.321,390.547,383.948,383.932,383.948z"/>
	</g>
</g>
<g>
	<g>
		<path d="M391.93,391.93c-2.211,0-3.999,1.789-3.999,3.999v23.996c0,2.21,1.788,3.999,3.999,3.999s3.999-1.789,3.999-3.999v-23.996
			C395.929,393.719,394.141,391.93,391.93,391.93z"/>
	</g>
</g>
<g>
	<g>
		<path d="M383.932,423.924h-31.994c-2.211,0-4,1.789-4,4c0,2.21,1.789,3.999,4,3.999h31.994c2.21,0,3.999-1.789,3.999-3.999
			C387.931,425.713,386.142,423.924,383.932,423.924z"/>
	</g>
</g>
<g>
	<g>
		<path d="M391.93,455.918c-2.211,0-3.999,1.789-3.999,4c0,2.202-1.797,3.999-3.999,3.999c-2.211,0-4,1.788-4,3.999
			s1.789,3.999,4,3.999c6.615,0,11.997-5.382,11.997-11.997C395.929,457.707,394.141,455.918,391.93,455.918z"/>
	</g>
</g>
<g>
	<g>
		<path d="M383.932,423.94c-2.211,0-4,1.789-4,4c0,2.21,1.789,3.999,4,3.999c2.202,0,3.999,1.788,3.999,3.983
			c0,2.211,1.788,3.999,3.999,3.999s3.999-1.788,3.999-3.999C395.929,429.314,390.547,423.94,383.932,423.94z"/>
	</g>
</g>
<g>
	<g>
		<path d="M391.93,431.923c-2.211,0-3.999,1.788-3.999,3.999v23.996c0,2.21,1.788,3.999,3.999,3.999s3.999-1.789,3.999-3.999
			v-23.996C395.929,433.711,394.141,431.923,391.93,431.923z"/>
	</g>
</g>
<g>
	<g>
		<path d="M383.932,463.917h-31.994c-2.211,0-4,1.788-4,3.999s1.789,3.999,4,3.999h31.994c2.21,0,3.999-1.788,3.999-3.999
			S386.142,463.917,383.932,463.917z"/>
	</g>
</g>
<g>
	<g>
		<path d="M391.93,455.918c-2.211,0-3.999,1.789-3.999,4v23.995c0,2.211,1.788,3.999,3.999,3.999s3.999-1.788,3.999-3.999v-23.995
			C395.929,457.707,394.141,455.918,391.93,455.918z"/>
	</g>
</g>
<g>
</g>
<g>
</g>
<g>
</g>
<g>
</g>
<g>
</g>
<g>
</g>
<g>
</g>
<g>
</g>
<g>
</g>
<g>
</g>
<g>
</g>
<g>
</g>
<g>
</g>
<g>
</g>
<g>
</g>
</svg>
