<svg id="Capa_1" enable-background="new 0 0 512 512" height="512" viewBox="0 0 512 512" width="512" xmlns="http://www.w3.org/2000/svg"><g><g><path d="m494.306 214.351-13.377-103.67c-3.601-27.901-24.406-51.025-51.774-57.541l-83.473-19.875-17.573-29.594c-1.148-1.877-3.423-3.67-6.449-3.671h-131.321c-2.259.045-4.844 1.038-6.449 3.671l-17.571 29.594-83.474 19.875c-27.368 6.516-48.174 29.64-51.774 57.541l-13.377 103.67c-.647 5.018.897 10.075 4.238 13.875s8.159 5.979 13.219 5.979h72.936v112.371c0 4.142 3.358 7.5 7.5 7.5s7.5-3.358 7.5-7.5v-171.389c0-4.142-3.358-7.5-7.5-7.5s-7.5 3.358-7.5 7.5v7.652h-71.202l9.063-70.239c2.807-21.756 19.031-39.788 40.372-44.869l9.314-2.218c8.146 14.164 12.453 30.281 12.453 46.621v18.604c0 4.142 3.358 7.5 7.5 7.5s7.5-3.358 7.5-7.5v-18.604c0-17.487-4.26-34.75-12.335-50.221l56.127-13.364 38.858 85.298c1.882 4.187 8.003 6.121 12.066 2.256l30.696-29.983v42.801c0 4.142 3.358 7.5 7.5 7.5 4.143 0 7.5-3.358 7.5-7.5v-42.8l30.696 29.982c2.993 2.824 8.888 3.277 12.065-2.256l38.859-85.298 56.127 13.364c-8.074 15.471-12.334 32.734-12.334 50.221v18.604c0 4.142 3.357 7.5 7.5 7.5s7.5-3.358 7.5-7.5v-18.604c0-16.341 4.307-32.458 12.453-46.621l9.314 2.218c21.341 5.081 37.565 23.113 40.372 44.869l9.063 70.239h-71.202v-7.652c0-4.142-3.357-7.5-7.5-7.5s-7.5 3.358-7.5 7.5v83.884c0 4.142 3.357 7.5 7.5 7.5s7.5-3.358 7.5-7.5v-24.866h72.936c5.06 0 9.877-2.179 13.218-5.979 3.342-3.799 4.887-8.856 4.24-13.875zm-386.219-16.512v21.366h-72.936c-1.024 0-1.664-.554-1.954-.884s-.757-1.035-.626-2.05l2.378-18.432zm147.913-121.42-23.639-29.094h47.278zm35.826-44.094h-71.652l-14.077-17.325h99.806zm-76.865 85.588-35.365-77.63 11.702-19.708 54.564 67.156zm82.077 0-30.901-30.182 54.564-67.156 11.702 19.709zm181.764 100.408c-.29.33-.93.884-1.953.884h-72.936v-21.366h73.137l2.378 18.431c.132 1.016-.335 1.721-.626 2.051z"/><path d="m396.413 286.594c-4.143 0-7.5 3.358-7.5 7.5v172.602h-265.826v-85.083c0-4.142-3.358-7.5-7.5-7.5s-7.5 3.358-7.5 7.5v122.887c0 4.142 3.358 7.5 7.5 7.5h280.826c4.143 0 7.5-3.358 7.5-7.5v-210.406c0-4.142-3.357-7.5-7.5-7.5zm-273.326 210.406v-15.305h265.826v15.305z"/><path d="m356.944 197.839c4.143 0 7.5-3.358 7.5-7.5s-3.357-7.5-7.5-7.5h-57.508c-4.143 0-7.5 3.358-7.5 7.5s3.357 7.5 7.5 7.5z"/></g></g></svg>